<svg width="24" height="24" viewBox="0 0 24 24" fill="none" xmlns="http://www.w3.org/2000/svg">
<g id="Group 1002">
<path id="Vector" d="M18.7998 6.59998L13.2 2.40002C12.8538 2.14038 12.4327 2 12 2C11.5673 2 11.146 2.14038 10.7998 2.40002L5.19995 6.59998C4.82736 6.87942 4.52493 7.24176 4.31665 7.65833C4.10837 8.07489 4 8.53426 4 9V20C4 20.5304 4.21062 21.0391 4.58569 21.4142C4.96077 21.7893 5.46957 22 6 22H18C18.5304 22 19.039 21.7893 19.4141 21.4142C19.7891 21.0391 20 20.5304 20 20V9C20 8.53426 19.8914 8.07489 19.6831 7.65833C19.4748 7.24176 19.1724 6.87942 18.7998 6.59998V6.59998Z" fill="#118A45" stroke="#118A45" stroke-width="2" stroke-miterlimit="10"/>
</g>
</svg>
