<svg width="24" height="24" viewBox="0 0 24 24" fill="none" xmlns="http://www.w3.org/2000/svg">
<path d="M4 5H19C19.3044 4.99985 19.6048 5.06924 19.8784 5.20282C20.152 5.3364 20.3915 5.53065 20.5786 5.77081C20.7657 6.01097 20.8956 6.29069 20.9583 6.58862C21.0209 6.88656 21.0145 7.19489 20.9399 7.49005L19.9399 13.4901C19.8308 13.9218 19.5807 14.3048 19.2292 14.5783C18.8778 14.8518 18.4453 15.0002 18 15H6C5.46957 15 4.96077 14.7893 4.58569 14.4142C4.21062 14.0392 4 13.5304 4 13V5C4 4.46957 3.78914 3.96089 3.41406 3.58582C3.03899 3.21074 2.53043 3 2 3H1" fill="#FFC613"/>
<path d="M4 5H19C19.3044 4.99985 19.6048 5.06924 19.8784 5.20282C20.152 5.3364 20.3915 5.53065 20.5786 5.77081C20.7657 6.01097 20.8956 6.29069 20.9583 6.58862C21.0209 6.88656 21.0145 7.19489 20.9399 7.49005L19.9399 13.4901C19.8308 13.9218 19.5807 14.3048 19.2292 14.5783C18.8778 14.8518 18.4453 15.0002 18 15H6C5.46957 15 4.96077 14.7893 4.58569 14.4142C4.21062 14.0392 4 13.5304 4 13V5ZM4 5C4 4.46957 3.78914 3.96089 3.41406 3.58582C3.03899 3.21074 2.53043 3 2 3H1" stroke="#FFC613" stroke-width="2" stroke-linejoin="round"/>
<path d="M17 22.01C18.1046 22.01 19 21.1146 19 20.01C19 18.9054 18.1046 18.01 17 18.01C15.8954 18.01 15 18.9054 15 20.01C15 21.1146 15.8954 22.01 17 22.01Z" stroke="#FFC613" stroke-width="2" stroke-miterlimit="10"/>
<path d="M7 22.01C8.10457 22.01 9 21.1146 9 20.01C9 18.9054 8.10457 18.01 7 18.01C5.89543 18.01 5 18.9054 5 20.01C5 21.1146 5.89543 22.01 7 22.01Z" stroke="#FFC613" stroke-width="2" stroke-miterlimit="10"/>
</svg>
