<svg width="20" height="20" viewBox="0 0 20 20" fill="none" xmlns="http://www.w3.org/2000/svg">
<path d="M15.8249 12.092L11.6582 16.2587V18.3253H13.7249L17.8915 14.1587C18.1633 13.8801 18.3155 13.5062 18.3155 13.117C18.3155 12.7278 18.1633 12.3539 17.8915 12.0753V12.0753C17.6135 11.8068 17.2412 11.6581 16.8547 11.6612C16.4682 11.6643 16.0985 11.819 15.8249 12.092V12.092Z" stroke="#FFC613" stroke-width="1.5" stroke-miterlimit="10"/>
<path d="M13.3334 5.00008C13.3334 4.11603 12.9821 3.26818 12.357 2.64306C11.7319 2.01793 10.8841 1.66675 10 1.66675C9.11597 1.66675 8.26817 2.01793 7.64305 2.64306C7.01792 3.26818 6.66669 4.11603 6.66669 5.00008V6.66675C6.66669 7.5508 7.01792 8.39865 7.64305 9.02377C8.26817 9.64889 9.11597 10.0001 10 10.0001C10.8841 10.0001 11.7319 9.64889 12.357 9.02377C12.9821 8.39865 13.3334 7.5508 13.3334 6.66675V5.00008Z" stroke="#FFC613" stroke-width="1.5" stroke-miterlimit="10"/>
<path d="M2.5 18.3336C3.76667 14.9002 6.66667 12.5002 10 12.5002" stroke="#FFC613" stroke-width="1.5" stroke-miterlimit="10"/>
</svg>
