<svg width="20" height="20" viewBox="0 0 20 20" fill="none" xmlns="http://www.w3.org/2000/svg">
<path d="M16.6666 7.5V15.8333C16.6666 16.2754 16.4909 16.6993 16.1783 17.0119C15.8657 17.3244 15.4419 17.5 14.9999 17.5H4.99992C4.55789 17.5 4.13389 17.3244 3.82133 17.0119C3.50877 16.6993 3.33325 16.2754 3.33325 15.8333V7.5" stroke="#FFC613" stroke-width="1.5" stroke-miterlimit="10"/>
<path d="M12.5 10.8333H7.5" stroke="#FFC613" stroke-width="1.5" stroke-miterlimit="10"/>
<path d="M1.66675 7.5V4.16667C1.66675 3.72464 1.84227 3.30074 2.15483 2.98818C2.46739 2.67562 2.89139 2.5 3.33341 2.5H16.6667C17.1088 2.5 17.5326 2.67562 17.8451 2.98818C18.1577 3.30074 18.3334 3.72464 18.3334 4.16667V7.5H1.66675Z" stroke="#FFC613" stroke-width="1.5" stroke-miterlimit="10"/>
</svg>
