<svg version="1.2" xmlns="http://www.w3.org/2000/svg" viewBox="0 0 20 20" width="20" height="20">
	<title>order-svg</title>
	<style>
		.s0 { fill: none;stroke: #118a45;stroke-miterlimit:10;stroke-width: 1.5 } 
	</style>
	<path id="Layer" fill-rule="evenodd" class="s0" d="m16.7 7.5v8.3c0 0.5-0.2 0.9-0.5 1.2-0.3 0.3-0.8 0.5-1.2 0.5h-10c-0.4 0-0.9-0.2-1.2-0.5-0.3-0.3-0.5-0.7-0.5-1.2v-8.3"/>
	<path id="Layer" fill-rule="evenodd" class="s0" d="m12.5 10.8h-5"/>
	<path id="Layer" fill-rule="evenodd" class="s0" d="m1.7 7.5v-3.3c0-0.5 0.1-0.9 0.5-1.2 0.3-0.3 0.7-0.5 1.1-0.5h13.4c0.4 0 0.8 0.2 1.1 0.5 0.4 0.3 0.5 0.7 0.5 1.2v3.3z"/>
</svg>