<svg width="24" height="24" viewBox="0 0 24 24" fill="none" xmlns="http://www.w3.org/2000/svg">
<g opacity="0.5">
<path d="M4 5H19C19.3044 4.99985 19.6048 5.06924 19.8784 5.20282C20.152 5.3364 20.3915 5.53065 20.5786 5.77081C20.7657 6.01097 20.8956 6.29069 20.9583 6.58862C21.0209 6.88656 21.0145 7.19489 20.9399 7.49005L19.9399 13.4901C19.8308 13.9218 19.5807 14.3048 19.2292 14.5783C18.8778 14.8518 18.4453 15.0002 18 15H6C5.46957 15 4.96077 14.7893 4.58569 14.4142C4.21062 14.0392 4 13.5304 4 13V5ZM4 5C4 4.46957 3.78914 3.96089 3.41406 3.58582C3.03899 3.21074 2.53043 3 2 3H1" stroke="#070648" stroke-width="2" stroke-linejoin="round"/>
<path d="M16.9999 22.01C18.1045 22.01 18.9999 21.1146 18.9999 20.01C18.9999 18.9054 18.1045 18.01 16.9999 18.01C15.8954 18.01 14.9999 18.9054 14.9999 20.01C14.9999 21.1146 15.8954 22.01 16.9999 22.01Z" stroke="#070648" stroke-width="2" stroke-miterlimit="10"/>
<path d="M6.99994 22.01C8.10451 22.01 8.99994 21.1146 8.99994 20.01C8.99994 18.9054 8.10451 18.01 6.99994 18.01C5.89537 18.01 4.99994 18.9054 4.99994 20.01C4.99994 21.1146 5.89537 22.01 6.99994 22.01Z" stroke="#070648" stroke-width="2" stroke-miterlimit="10"/>
</g>
</svg>
